Coordinates
version=1
nRows=19
nColumns=63
inDegrees=yes

Units are S.I. units (second, meters, Newtons, ...)
If the header above contains a line with 'inDegrees', this indicates whether rotational values are in degrees (yes) or radians (no).

endheader
time	pelvis_tilt	pelvis_list	pelvis_rotation	pelvis_tx	pelvis_ty	pelvis_tz	hip_flexion_r	hip_adduction_r	hip_rotation_r	knee_angle_r	knee_angle_r_beta	ankle_angle_r	subtalar_angle_r	mtp_angle_r	hip_flexion_l	hip_adduction_l	hip_rotation_l	knee_angle_l	knee_angle_l_beta	ankle_angle_l	subtalar_angle_l	mtp_angle_l	L5_S1_Flex_Ext	L5_S1_Lat_Bending	L5_S1_axial_rotation	L4_L5_Flex_Ext	L4_L5_Lat_Bending	L4_L5_axial_rotation	L3_L4_Flex_Ext	L3_L4_Lat_Bending	L3_L4_axial_rotation	L2_L3_Flex_Ext	L2_L3_Lat_Bending	L2_L3_axial_rotation	L1_L2_Flex_Ext	L1_L2_Lat_Bending	L1_L2_axial_rotation	L1_T12_Flex_Ext	L1_T12_Lat_Bending	L1_T12_axial_rotation	Abs_r3	Abs_r2	Abs_r1	Abs_t1	Abs_t2	neck_flexion	neck_bending	neck_rotation	arm_flex_r	arm_add_r	arm_rot_r	elbow_flex_r	pro_sup_r	wrist_flex_r	wrist_dev_r	arm_flex_l	arm_add_l	arm_rot_l	elbow_flex_l	pro_sup_l	wrist_flex_l	wrist_dev_l
6.593220	-1.714435	-9.281569	91.120959	-0.113053	0.743613	0.706526	16.430894	-6.164447	-13.687713	19.582497	0.341779	33.949611	11.224977	0.000000	14.670424	2.681357	-10.928840	12.714027	0.221902	30.762338	15.139838	0.000000	-0.385673	-0.197400	-1.576747	-0.716234	-0.262543	-1.675294	-0.633622	-0.479959	-1.675294	-0.440786	-0.479959	-1.379654	-0.358136	-0.402539	-1.281107	-0.220374	-0.305773	-1.182560	-2.754825	-2.233033	-8.769394	0.000000	0.000000	15.662323	3.976045	3.999782	69.344782	-42.635720	-17.019065	149.787541	85.284307	-3.366115	23.712416	-4.232277	-19.127830	29.805604	27.606157	75.644797	-10.996316	-6.137717
6.610169	-1.714905	-9.030519	91.335536	-0.113292	0.743863	0.706202	15.981273	-6.227710	-14.082760	19.445565	0.339389	33.938803	11.429451	0.000000	14.388441	2.735166	-10.649346	12.693229	0.221539	30.722613	15.088840	0.000000	-0.412317	-0.195287	-1.678191	-0.765715	-0.259732	-1.783078	-0.677396	-0.474821	-1.783078	-0.471238	-0.474821	-1.468417	-0.382878	-0.398230	-1.363530	-0.235598	-0.302500	-1.258643	-2.945142	-2.209128	-9.333594	0.000000	0.000000	16.283330	3.947597	4.002507	69.905845	-42.536393	-17.125602	149.790776	84.154518	-3.772943	22.904632	-4.442948	-19.014243	29.195964	27.561817	75.428114	-10.904101	-6.120771
6.627119	-1.734810	-8.789826	91.505240	-0.113484	0.744053	0.705908	15.572706	-6.298555	-14.421506	19.339460	0.337537	33.943204	11.636527	0.000000	14.122801	2.797110	-10.425429	12.688535	0.221457	30.667193	15.041312	0.000000	-0.437219	-0.195434	-1.763632	-0.811959	-0.259927	-1.873859	-0.718307	-0.475178	-1.873859	-0.499697	-0.475178	-1.543178	-0.406001	-0.398529	-1.432951	-0.249827	-0.302727	-1.322724	-3.123009	-2.210786	-9.808794	0.000000	0.000000	17.010491	3.925021	3.919286	70.367414	-42.503024	-17.362028	149.795046	82.807498	-4.246384	21.901412	-4.638470	-18.927588	28.606245	27.553914	75.197782	-10.758119	-6.107219
6.644068	-1.770995	-8.557433	91.601479	-0.113615	0.744195	0.705617	15.205539	-6.368632	-14.690233	19.255225	0.336067	33.962188	11.881563	0.000000	13.858542	2.862040	-10.264529	12.680430	0.221315	30.597854	14.973066	0.000000	-0.459739	-0.197532	-1.824644	-0.853781	-0.262717	-1.938684	-0.755305	-0.480279	-1.938684	-0.525436	-0.480279	-1.596564	-0.426914	-0.402807	-1.482523	-0.262695	-0.305977	-1.368483	-3.283870	-2.234518	-10.148123	0.000000	0.000000	17.828815	3.916066	3.765864	70.724830	-42.555681	-17.715115	149.800176	81.363184	-4.738226	20.832533	-4.825902	-18.845365	27.970432	27.577088	74.875757	-10.482366	-6.066514
6.661017	-1.830272	-8.347076	91.633916	-0.113621	0.744303	0.705338	14.901485	-6.440320	-14.869591	19.205736	0.335203	34.002557	12.120471	0.000000	13.618050	2.928255	-10.186546	12.688388	0.221454	30.510244	14.916940	0.000000	-0.477807	-0.203692	-1.861558	-0.887336	-0.270910	-1.977906	-0.784990	-0.495256	-1.977906	-0.546086	-0.495256	-1.628863	-0.443692	-0.415369	-1.512516	-0.273019	-0.315519	-1.396169	-3.412930	-2.304203	-10.353428	0.000000	0.000000	18.711852	3.918446	3.526123	70.945097	-42.686350	-18.163822	149.804237	79.814516	-5.244209	19.714297	-4.981459	-18.814729	27.450383	27.630398	74.609110	-10.207053	-6.037823
6.677966	-1.903141	-8.155132	91.623712	-0.113589	0.744387	0.705052	14.640650	-6.512177	-14.973619	19.164269	0.334480	34.062564	12.348082	0.000000	13.388044	3.000066	-10.176820	12.691477	0.221508	30.403125	14.872996	0.000000	-0.492229	-0.212826	-1.872886	-0.914118	-0.283059	-1.989941	-0.808683	-0.517466	-1.989941	-0.562568	-0.517466	-1.638775	-0.457084	-0.433995	-1.521720	-0.281260	-0.329668	-1.404664	-3.515942	-2.407532	-10.416430	0.000000	0.000000	19.638854	3.943001	3.110666	71.080747	-42.918818	-18.725200	149.809596	78.278626	-5.635880	18.835199	-5.085033	-18.830162	27.106691	27.712262	74.421406	-9.942382	-6.023057
6.694915	-1.978234	-7.995572	91.590723	-0.113519	0.744448	0.704755	14.430960	-6.579354	-15.039873	19.126066	0.333813	34.144104	12.581516	0.000000	13.190994	3.068121	-10.200678	12.702783	0.221705	30.282925	14.820024	0.000000	-0.501276	-0.222946	-1.862278	-0.930920	-0.296518	-1.978670	-0.823547	-0.542071	-1.978670	-0.572909	-0.542071	-1.629493	-0.465485	-0.454631	-1.513101	-0.286429	-0.345343	-1.396708	-3.580565	-2.522009	-10.357431	0.000000	0.000000	20.594832	3.956653	2.582220	71.148810	-43.235909	-19.372816	149.813953	76.782504	-5.776098	18.206959	-5.129083	-18.881916	26.983340	27.798459	74.297499	-9.707684	-6.023337
6.711864	-2.087400	-7.863648	91.474946	-0.113319	0.744501	0.704469	14.289185	-6.663424	-15.007634	19.108598	0.333508	34.252890	12.826898	0.000000	13.008180	3.157870	-10.297202	12.688611	0.221458	30.142909	14.721971	0.000000	-0.506991	-0.237935	-1.824106	-0.941533	-0.316453	-1.938113	-0.832936	-0.578514	-1.938113	-0.579440	-0.578514	-1.596093	-0.470792	-0.485196	-1.482086	-0.289695	-0.368561	-1.368080	-3.621387	-2.691564	-10.145133	0.000000	0.000000	21.573076	3.958373	1.953125	71.162791	-43.597616	-20.042130	149.817676	75.327148	-5.784087	17.816383	-5.125650	-18.984273	27.035890	27.897090	74.173558	-9.458572	-6.065255
6.728814	-2.196152	-7.783436	91.354863	-0.113082	0.744529	0.704188	14.213135	-6.736011	-14.921263	19.086761	0.333127	34.370230	13.004381	0.000000	12.883392	3.239797	-10.446149	12.682429	0.221350	30.016991	14.664315	0.000000	-0.505730	-0.253656	-1.768497	-0.939191	-0.337363	-1.879028	-0.830864	-0.616740	-1.879028	-0.577999	-0.616740	-1.547435	-0.469621	-0.517256	-1.436904	-0.288974	-0.392914	-1.326373	-3.612380	-2.869412	-9.835850	0.000000	0.000000	22.499071	3.990674	1.236020	71.094865	-44.048369	-20.783350	149.821095	74.050266	-5.644270	17.593733	-5.055486	-19.122169	27.303055	27.990870	74.160166	-9.259357	-6.091261
6.745763	-2.303367	-7.736069	91.250310	-0.112846	0.744572	0.703923	14.175882	-6.803337	-14.803828	19.058027	0.332625	34.485011	13.105654	0.000000	12.797073	3.318481	-10.628715	12.678702	0.221285	29.899523	14.666333	0.000000	-0.501182	-0.268775	-1.703712	-0.930746	-0.357470	-1.810194	-0.823393	-0.653499	-1.810194	-0.572801	-0.653499	-1.490748	-0.465398	-0.548085	-1.384266	-0.286376	-0.416332	-1.277784	-3.579896	-3.040433	-9.475532	0.000000	0.000000	23.296691	4.036421	0.477518	70.983490	-44.564164	-21.562524	149.823917	72.984283	-5.366401	17.487457	-4.914326	-19.279936	27.760528	28.062432	74.267973	-9.133675	-6.087097
6.762712	-2.396566	-7.730495	91.198593	-0.112667	0.744608	0.703727	14.176924	-6.874497	-14.744990	19.020051	0.331963	34.594541	13.203155	0.000000	12.769143	3.394921	-10.784274	12.683477	0.221368	29.812943	14.699817	0.000000	-0.494316	-0.280807	-1.646241	-0.917994	-0.373474	-1.749132	-0.812112	-0.682755	-1.749132	-0.564954	-0.682755	-1.440461	-0.459022	-0.572622	-1.337571	-0.282452	-0.434970	-1.234681	-3.530850	-3.176547	-9.155901	0.000000	0.000000	23.957500	4.119146	-0.239648	70.885140	-45.085357	-22.327340	149.826348	72.164367	-5.064050	17.443917	-4.732036	-19.446308	28.317311	28.123948	74.417788	-9.070132	-6.068454
6.779661	-2.476128	-7.751476	91.166599	-0.112535	0.744649	0.703567	14.205309	-6.941487	-14.709252	18.983955	0.331333	34.691135	13.277583	0.000000	12.777593	3.464110	-10.939347	12.689307	0.221470	29.771619	14.770412	0.000000	-0.485496	-0.289255	-1.589418	-0.901614	-0.384709	-1.688757	-0.797621	-0.703295	-1.688757	-0.554873	-0.703295	-1.390741	-0.450831	-0.589849	-1.291402	-0.277412	-0.448056	-1.192064	-3.467846	-3.272113	-8.839867	0.000000	0.000000	24.395472	4.216817	-0.928515	70.789418	-45.645844	-23.093074	149.828434	71.559366	-4.762849	17.399173	-4.508002	-19.605967	28.946206	28.165991	74.531888	-9.018322	-6.028040
6.796610	-2.541997	-7.793585	91.156621	-0.112449	0.744711	0.703490	14.253582	-6.999160	-14.686427	18.948787	0.330719	34.752636	13.298488	0.000000	12.821900	3.523940	-11.096819	12.700206	0.221660	29.776154	14.892105	0.000000	-0.475934	-0.294093	-1.537824	-0.883858	-0.391144	-1.633939	-0.781913	-0.715058	-1.633939	-0.543945	-0.715058	-1.345596	-0.441953	-0.599714	-1.249482	-0.271949	-0.455550	-1.153368	-3.399551	-3.326839	-8.552918	0.000000	0.000000	24.590649	4.316969	-1.603294	70.719602	-46.194767	-23.862332	149.830723	71.108488	-4.433341	17.348781	-4.219018	-19.775292	29.742874	28.168943	74.679631	-9.057809	-5.976985
6.813559	-2.593569	-7.839234	91.218202	-0.112478	0.744810	0.703485	14.286347	-7.062084	-14.733900	18.910807	0.330056	34.776762	13.284607	0.000000	12.881532	3.586710	-11.208324	12.710597	0.221842	29.820104	15.059051	0.000000	-0.468057	-0.294642	-1.512178	-0.869229	-0.391874	-1.606689	-0.768971	-0.716392	-1.606689	-0.534942	-0.716392	-1.323156	-0.434638	-0.600833	-1.228645	-0.267448	-0.456400	-1.134134	-3.343284	-3.333046	-8.410282	0.000000	0.000000	24.561356	4.421004	-2.172480	70.706916	-46.682274	-24.524105	149.832012	70.564923	-4.200879	17.280239	-3.939714	-19.924544	30.486006	28.173496	74.929397	-9.248286	-5.938182
6.830508	-2.630779	-7.881939	91.315825	-0.112590	0.744935	0.703581	14.306981	-7.121546	-14.821230	18.877323	0.329471	34.759497	13.233832	0.000000	12.956869	3.642830	-11.291830	12.735791	0.222281	29.904582	15.253304	0.000000	-0.462422	-0.290521	-1.512360	-0.858764	-0.386392	-1.606882	-0.759714	-0.706372	-1.606882	-0.528502	-0.706372	-1.323315	-0.429405	-0.592430	-1.228792	-0.264228	-0.450016	-1.134270	-3.303036	-3.286428	-8.411292	0.000000	0.000000	24.334822	4.536099	-2.600553	70.793011	-47.024216	-25.053455	149.833168	70.202849	-4.015348	17.246882	-3.692600	-20.048500	31.117070	28.196313	75.368391	-9.569499	-5.897056
6.847458	-2.665560	-7.905854	91.456066	-0.112804	0.745095	0.703753	14.292690	-7.191275	-14.946065	18.842509	0.328864	34.703552	13.151806	0.000000	13.021167	3.709971	-11.334364	12.759653	0.222698	30.004182	15.454164	0.000000	-0.459900	-0.282850	-1.544581	-0.854080	-0.376191	-1.641117	-0.755569	-0.687723	-1.641117	-0.525619	-0.687723	-1.351508	-0.427063	-0.576789	-1.254972	-0.262787	-0.438135	-1.158436	-3.285018	-3.199661	-8.590496	0.000000	0.000000	23.921356	4.653580	-2.854698	70.979108	-47.195979	-25.385835	149.833802	69.947370	-3.933417	17.228992	-3.515212	-20.138211	31.534885	28.258842	75.984493	-9.966145	-5.850371
6.864407	-2.688807	-7.906234	91.627339	-0.113088	0.745277	0.704005	14.245762	-7.255965	-15.085850	18.811660	0.328325	34.620089	13.029741	0.000000	13.072447	3.772197	-11.349033	12.790829	0.223242	30.118439	15.662052	0.000000	-0.460067	-0.270529	-1.608098	-0.854391	-0.359804	-1.708604	-0.755844	-0.657764	-1.708604	-0.525811	-0.657764	-1.407086	-0.427218	-0.551663	-1.306580	-0.262882	-0.419049	-1.206074	-3.286214	-3.060279	-8.943760	0.000000	0.000000	23.356616	4.770581	-2.875047	71.265623	-47.162145	-25.504264	149.834781	70.154561	-3.937075	17.245450	-3.406940	-20.193921	31.785670	28.351948	76.750941	-10.445770	-5.796600
6.881356	-2.709797	-7.868944	91.806402	-0.113421	0.745487	0.704300	14.155476	-7.320923	-15.221627	18.781425	0.327798	34.520142	12.884361	0.000000	13.083241	3.837858	-11.338910	12.811491	0.223603	30.234378	15.858533	0.000000	-0.464944	-0.255897	-1.692054	-0.863447	-0.340343	-1.797807	-0.763856	-0.622188	-1.797807	-0.531384	-0.622188	-1.480547	-0.431747	-0.521825	-1.374794	-0.265669	-0.396384	-1.269041	-3.321046	-2.894756	-9.410697	0.000000	0.000000	22.686774	4.906573	-2.742259	71.611084	-46.970426	-25.516962	149.835569	70.616019	-3.887221	17.273144	-3.362469	-20.221059	31.837009	28.485700	77.679943	-10.954818	-5.732080
6.898305	-2.706758	-7.803841	91.997477	-0.113794	0.745705	0.704606	14.031437	-7.362696	-15.355049	18.745122	0.327164	34.427422	12.728115	0.000000	13.071769	3.880383	-11.303770	12.840964	0.224117	30.343523	16.047042	0.000000	-0.471410	-0.236331	-1.797951	-0.875456	-0.314320	-1.910323	-0.774480	-0.574615	-1.910323	-0.538775	-0.574615	-1.573207	-0.437751	-0.481926	-1.460835	-0.269364	-0.366077	-1.348463	-3.367235	-2.673422	-9.999664	0.000000	0.000000	21.924160	5.040779	-2.404829	71.985252	-46.628405	-25.343052	149.836162	71.484581	-4.000819	17.247105	-3.391833	-20.206868	31.691425	28.648054	78.691768	-11.431807	-5.634105
